<?xml version="1.0" standalone="no"?>
<!DOCTYPE svg PUBLIC "-//W3C//DTD SVG 20010904//EN"
 "http://www.w3.org/TR/2001/REC-SVG-20010904/DTD/svg10.dtd">
<svg version="1.0" xmlns="http://www.w3.org/2000/svg"
 width="150.000000pt" height="150.000000pt" viewBox="0 0 150.000000 150.000000"
 preserveAspectRatio="xMidYMid meet">
<metadata>
Created by potrace 1.11, written by Peter Selinger 2001-2013
</metadata>
<g transform="translate(0.000000,150.000000) scale(0.100000,-0.100000)"
fill="#000000" stroke="none">
<path d="M499 1485 c-17 -9 -51 -63 -107 -168 -45 -86 -82 -162 -82 -170 0 -9
44 -43 103 -78 136 -82 152 -90 169 -84 12 5 125 201 187 323 7 12 16 20 20
17 20 -12 121 -204 115 -219 -6 -16 -5 -17 131 -75 54 -23 73 -27 82 -18 7 7
28 57 48 112 31 84 34 101 22 110 -8 6 -40 61 -70 122 -31 61 -67 119 -79 127
-31 22 -499 23 -539 1z"/>
<path d="M1155 906 c-65 -40 -123 -80 -129 -88 -10 -17 -3 -29 136 -246 87
-135 94 -124 -70 -121 -137 2 -140 1 -164 -23 -12 -14 -47 -49 -75 -79 l-53
-54 78 -81 77 -80 140 1 c101 1 147 5 164 16 32 19 241 443 241 490 0 26 -22
67 -97 179 -88 133 -109 160 -123 160 -3 0 -59 -33 -125 -74z"/>
<path d="M315 929 c-22 -4 -62 -10 -90 -13 -69 -9 -85 -15 -85 -32 0 -8 -31
-62 -70 -120 -46 -70 -70 -116 -70 -135 0 -34 190 -416 232 -467 23 -27 59
-32 245 -32 169 -1 189 0 200 17 10 13 13 57 12 160 -1 125 -3 145 -19 156
-12 9 -73 12 -219 11 -174 -1 -201 1 -196 14 16 42 116 200 130 206 13 5 15
16 10 63 -3 32 -8 67 -10 78 -2 11 -4 32 -4 46 -2 43 -20 57 -66 48z"/>
</g>
</svg>
